<?xml version="1.0" encoding="UTF-8"?>
<svg width="512" height="512" viewBox="0 0 512 512" xmlns="http://www.w3.org/2000/svg">
  <!-- 渐变定义 -->
  <defs>
    <linearGradient id="bgGradient" x1="0%" y1="0%" x2="100%" y2="100%">
      <stop offset="0%" style="stop-color:#2C3E50;stop-opacity:1" />
      <stop offset="100%" style="stop-color:#34495E;stop-opacity:1" />
    </linearGradient>
  </defs>
  
  <!-- 主背景 - 深灰蓝色渐变圆角矩形 -->
  <rect x="32" y="32" width="448" height="448" rx="64" ry="64" fill="url(#bgGradient)"/>
  
  <!-- 左侧栏 - 英文内容 -->
  <rect x="80" y="100" width="176" height="312" rx="12" ry="12" fill="white" stroke="#2C3E50" stroke-width="2"/>
  
  <!-- 左侧栏标题 - 空心设计 -->
  <rect x="80" y="100" width="176" height="32" rx="12" ry="12" fill="white" stroke="#2C3E50" stroke-width="2"/>
  
  <!-- 左侧栏内容线条 -->
  <rect x="100" y="150" width="136" height="4" rx="2" fill="#BDC3C7"/>
  <rect x="100" y="170" width="116" height="4" rx="2" fill="#BDC3C7"/>
  <rect x="100" y="190" width="126" height="4" rx="2" fill="#BDC3C7"/>
  <rect x="100" y="210" width="106" height="4" rx="2" fill="#BDC3C7"/>
  <rect x="100" y="230" width="121" height="4" rx="2" fill="#BDC3C7"/>
  <rect x="100" y="250" width="111" height="4" rx="2" fill="#BDC3C7"/>
  <rect x="100" y="270" width="131" height="4" rx="2" fill="#BDC3C7"/>
  <rect x="100" y="290" width="101" height="4" rx="2" fill="#BDC3C7"/>
  <rect x="100" y="310" width="116" height="4" rx="2" fill="#BDC3C7"/>
  <rect x="100" y="330" width="126" height="4" rx="2" fill="#BDC3C7"/>
  <rect x="100" y="350" width="106" height="4" rx="2" fill="#BDC3C7"/>
  <rect x="100" y="370" width="121" height="4" rx="2" fill="#BDC3C7"/>
  <rect x="100" y="390" width="111" height="4" rx="2" fill="#BDC3C7"/>
  
  <!-- 右侧栏 - 中文内容 -->
  <rect x="256" y="100" width="176" height="312" rx="12" ry="12" fill="white" stroke="#2C3E50" stroke-width="2"/>
  
  <!-- 右侧栏标题 - 空心设计 -->
  <rect x="256" y="100" width="176" height="32" rx="12" ry="12" fill="white" stroke="#2C3E50" stroke-width="2"/>
  
  <!-- 右侧栏内容线条 -->
  <rect x="276" y="150" width="136" height="4" rx="2" fill="#BDC3C7"/>
  <rect x="276" y="170" width="116" height="4" rx="2" fill="#BDC3C7"/>
  <rect x="276" y="190" width="126" height="4" rx="2" fill="#BDC3C7"/>
  <rect x="276" y="210" width="106" height="4" rx="2" fill="#BDC3C7"/>
  <rect x="276" y="230" width="121" height="4" rx="2" fill="#BDC3C7"/>
  <rect x="276" y="250" width="111" height="4" rx="2" fill="#BDC3C7"/>
  <rect x="276" y="270" width="131" height="4" rx="2" fill="#BDC3C7"/>
  <rect x="276" y="290" width="101" height="4" rx="2" fill="#BDC3C7"/>
  <rect x="276" y="310" width="116" height="4" rx="2" fill="#BDC3C7"/>
  <rect x="276" y="330" width="126" height="4" rx="2" fill="#BDC3C7"/>
  <rect x="276" y="350" width="106" height="4" rx="2" fill="#BDC3C7"/>
  <rect x="276" y="370" width="121" height="4" rx="2" fill="#BDC3C7"/>
  <rect x="276" y="390" width="111" height="4" rx="2" fill="#BDC3C7"/>
</svg> 